<?xml version="1.0" encoding="utf-8"?>
<?xml-stylesheet type="text/xsl" href="rss1.xsl"?>
<rss version="2.0" xmlns:atom="http://www.w3.org/2005/Atom" xmlns:content="http://purl.org/rss/1.0/modules/content/" xmlns:dc="http://purl.org/dc/elements/1.1/" xmlns:media="http://search.yahoo.com/mrss/">
<channel>
 <title>Getty</title>
 <link>http://www.gettyimg.com/</link>
 <atom:link href="http://www.gettyimg.com/" rel="self" type="application/rss+xml" />

 
                <item>
                <title><![CDATA[【Albums (lossless)】PACK - Sophie Ellis-Bextor - Complete Discography (1997-2024) | Qobuz CD + Hi-Res FLAC + Bônus]]></title>
                <link><![CDATA[https://sharemania.us/threads/sophie-ellis-bextor-complete-discography-1997-2024-qobuz-cd-hi-res-flac-b%C3%B4nus.236629/]]></link>
                <description><![CDATA[<article>
<blockquote class="messageText SelectQuoteContainer ugc baseHtml">
<div style="text-align: center"><img src="https://files.greenhousetalent.com/images/artist/n-s/greenhouse-talent-sophie-ellis-bextor-2024.jpg" class="bbCodeImage LbImage" alt="[​IMG]" data-url="https://files.greenhousetalent.com/images/artist/n-s/greenhouse-talent-sophie-ellis-bextor-2024.jpg" style="">​</div>
<div class="bbCodeBlock bbCodeCode">
<div class="type">Code:</div>
<pre>Artist       : Sophie Ellis-Bextor
Album        : Discography
Year         : 1997-2024
Quality      : FLAC 16bit &amp; 24bit 
Source       : WEB

Albums:
01. Read My Lips
02. Shoot From The Hip
03. Trip The Light Fantastic
04. Make a Scene
05. Wanderlust
06. Wanderlust (Deluxe Wandermix Version)
07. Familia
08. HANA
09. HANA (Deluxe)
10. Songs from the Kitchen Disco_ Sophie Ellis-Bextor's Greatest Hits
11. The Song Diaries
12. Sophie Ellis-Bextor's Kitchen Disco (Live at The London Palladium)

Singles &amp; EP's:
01. A Pessimist is Never Disappointed (Orchestral Version)
02. Breaking the Circle
03. Breaking the Circle (Sudlow Radio Mix)
04. Catch You (Riff &amp; Rays Remix) [Radio Edit]
05. Come With Us (F9 Edits)
06. Crying at the Discotheque
07. Crystallise (F9 Edits)
08. Dancing Queen (Live at the London Palladium)
09. Everything Is Sweet
10. Hypnotized
11. Hypnotized (Remixes) - EP
12. Hypnotized (Sega Bodega Version)
13. Hypnotized _ Like A Prayer (Live at The London Palladium)
14. iTunes Festival London 2009 - EP
15. Lost In The Sunshine
16. Lost In the Sunshine (Remixes)
17. Lost In The Sunshine (Sudlow Radio Mix)
18. Love Is You
19. Me &amp; My Imagination (StoneBridge Radio Mix)
20. Me &amp; My Imagination (StoneBridge Remix)
21. Me &amp; My Imagination (Tony Lamezma Club Mix)
22. Me &amp; My Imagination (Tony Lamezma Radio Mix)
23. Murder On The Dancefloor
24. Murder On The Dancefloor - EP
25. Murder On The Dancefloor (Orchestral Versions)
26. My Favourite Things (Christmas Kitchen Disco Version)
27. Starlight
28. Take Me Home (Orchestral Versions)
29. Today The Sun's On Us
30. Today The Sun's On Us (Radio Edit)
31. Today The Sun's On Us (Richmann Remix)
32. True Faith (BBC Session)
33. While You're Still Young (From ''Everybody's Talking About Jamie'')
34. Wild Forever (F9 Edits)
35. Young Blood
36. Jolene *Lossy
37. One Way Or Another *Lossy

Featured Singles:
01. Back 2 Paradise
02. Beautiful (feat. Sophie Ellis Bextor)
03. Can't Fight This Feeling (feat. Sophie Ellis-Bextor)
04. Circles (Just My Good Time) - EP
05. DEEP IN VOGUE (feat. Sophie Ellis-Bextor)
06. Dezzy The Grumpy Dragon (feat. Sophie Ellis-Bextor)
07. Don't Stop (feat. Jamie Cullum &amp; Original West End Cast of Everybody's Talking About Jamie)
08. Fuck With You (feat. Sophie Ellis-Bextor &amp; Gilbere Forte) - EP
09. Groovejet (If This Ain't Love) [feat. Sophie Ellis-Bextor] - EP
10. Groovejet (If This Ain't Love) [feat. Sophie Ellis-Bextor] (Riva Starr Remixes)
11. Groovejet (If This Ain't Love) [feat. Sophie Ellis-Bextor] [Breakbot &amp; Irfane Remix]
12. Groovejet (If This Ain't Love) [feat. Sophie Ellis-Bextor] [Harvey Sutherland Remix]
13. Groovejet (If This Ain't Love) [feat. Sophie Ellis-Bextor] [Purple Disco Machine &amp; Lorenz Rhode Remix]
14. Heartbreak (Make Me a Dancer) [feat. Sophie Ellis-Bextor]
15. Heartbreak (Make Me a Dancer) [feat. Sophie Ellis-Bextor] [Remixes]
16. Hummingbird (feat. Sophie Ellis-Bextor)
17. Hummingbird (feat. Sophie Ellis-Bextor) [Extended Mix]
18. Hummingbird (feat. Sophie Ellis-Bextor) [Ferdinand Weber Remix]
19. Immortal (feat. Sophie Ellis-Bextor) [Because of Art Remix]
20. Immortal (feat. Sophie Ellis-Bextor) [David Penn Remix]
21. Immortal (feat. Sophie Ellis-Bextor) [Ruben De Ronde Presents Nrg2000 Remix]
22. Leave Me Out Of It (feat. Sophie Ellis-Bextor)
23. Not Giving Up On Love  EP
24. Not Giving Up On Love (feat. Sophie Ellis-Bextor) [Frontliner Remix]
25. Not Giving Up On Love (Remixes) - EP
26. Only Child (feat. Sophie Ellis-Bextor)
27. Only Child (feat. Sophie Ellis-Bextor) - EP
28. Shining Star (feat. Sophie Ellis Bextor)
29. Rebellion (Lies)
30. Self Control (feat. Sophie Ellis-Bextor)
31. Sweet Dreams (Are Made of This) [feat. Sophie Ellis-Bextor]
32. Save Myself (feat. Sophie Ellis-Bextor)
33. Black Holes for the Young (B-Side) [Remastered]
34. Johnny a (Simon Raymonde Remix)

CD_Vinyl Rip:
01. 2000 - Groovejet (If This Ain't Love) (2000 - Kontor Records GmbH. Germany - Kontor 124. 158 335-2)
02. 2001 - Read My Lips (UK Version) (2001 - Polydor Ltd. (UK). United Kingdom - 589 174-2)
03. 2002 - Get Over You (2002 - Polydor Ltd. Germany - 570 849-2)
04. 2002 - Read My Lips (New Special Edition) (2002 - Polydor Ltd. Germany - 589 986-2)
05. 2003 - Shoot From The Hip (2003 - Polydor Ltd. (UK). Germany - 9865839)
06. 2007 - Trip The Light Fantastic (2007 - Polydor Ltd. (UK). Germany - 1731541)
07. 2011 - Make A Scene (2011 - Douglas Valentine Limited. United Kingdom - EBGBCD001)
08. 2014 - Wanderlust (Deluxe Bookbound with Signed photo print) (2014 - Douglas Valentine Limited. United Kingdom - EBGBCD002S)
09. 2016 - Familia (Deluxe Bookbound Signed CD) (2016 - Red Essential. EBGB'S. United Kingdom - EBGBCD004S)

and more...

Ohers: 
01. 2008 - Famous Club - Born To Be *Lossy
02. 2009 - Unreleased Promo CD *Lossy
03. 2012 - Straight To The Heart Tour *Lossy
04. Bonus with 17 songs *Lossy

Others projects:
01. theaudience (Deluxe Edition)
02. A Pessimist Is Never Disappointed
03. I Got The Wherewithal
04. I Know Enough (I Don't Get Enough)
05. If You Can't Do It When You're Young; When Can You Do It_</pre>
</div><div style="text-align: center">
<div class="bbCodeBlock bbCodeVfcHH HiddenContent">
<div class="attribution type">Hidden Content:</div>
<blockquote>You must reply before you can see the hidden data contained here.</blockquote>
</div></div>
<div class="messageTextEndMarker">&nbsp;</div>
</blockquote>
</article>]]></description>
                <author><![CDATA[Yennefer]]></author>
                </item>

                
                <item>
                <title><![CDATA[【Cinema Center】SERIES - Puppy Dog Pals - Season 5 - 1080p Disney+ WEB-DL DDP5.1 H.264-LAZY]]></title>
                <link><![CDATA[https://sharemania.us/threads/puppy-dog-pals-season-5-1080p-disney-web-dl-ddp5-1-h-264-lazy.236630/]]></link>
                <description><![CDATA[<article>
<blockquote class="messageText SelectQuoteContainer ugc baseHtml">
Puppy Dog Pals:<img src="http:////cdn2.broadcasthe.net/tvdb/banners/v4/series/325978/banners/65b47722e5115.jpg" class="bbCodeImage LbImage" alt="[​IMG]" data-url="http:////cdn2.broadcasthe.net/tvdb/banners/v4/series/325978/banners/65b47722e5115.jpg" style=""> <br>
<br>
<div class="bbCodeBlock bbCodeQuote">
<aside>
<blockquote class="quoteContainer"><div class="quote"><i><b>Synopsis:</b></i><br>
Fun-loving pug puppies, brothers Bingo and Rolly, have thrill-seeking appetites that take them on exhilarating adventures in their neighborhood and around the globe. Whether helping their owner Bob or assisting a friend in need, the pugs’ motto is that life is more exciting with your best friend by your side. Each episode features two 11-minute stories that showcase Bingo and Rolly’s similarities and differences while demonstrating positive lessons about friendship, problem-solving, collaboration, creativity and adventure.</div><div class="quoteExpand">Click to expand...</div></blockquote>
</aside>
</div>
<div class="ToggleTriggerAnchor bbCodeSpoilerContainer">
<button type="button" class="button bbCodeSpoilerButton ToggleTrigger Tooltip JsOnly" data-target="> .SpoilerTarget"><span>Spoiler: <span class="SpoilerTitle">MediaInfo</span></span></button>
<div class="SpoilerTarget bbCodeSpoilerText">General<br>
Unique ID : 219987960764724610270972854170884468060 (0xA58023DDDD885252DBD28F2B828B6D5C)<br>
Complete name : Puppy.Dog.Pals.S05E01E02.New.Pals.on.the.Block.-.Aunt.and.Uncle.Day.1080p.DSNP.WEB-DL.DDP5.1.H.264-LAZY.mkv<br>
Format : Matroska<br>
Format version : Version 4<br>
File size : 1.28 GiB<br>
Duration : 24 min 5 s<br>
Overall bit rate mode : Variable<br>
Overall bit rate : 7 626 kb/s<br>
Frame rate : 23.976 FPS<br>
Encoded date : 2024-01-26 16:39:58 UTC<br>
Writing application : mkvmerge v82.0 ('I'm The President') 64-bit<br>
Writing library : libebml v1.4.5 + libmatroska v1.7.1<br>
<br>
Video<br>
ID : 1<br>
Format : AVC<br>
Format/Info : Advanced Video Codec<br>
Format profile : High@L4<br>
Format settings : CABAC / 4 Ref Frames<br>
Format settings, CABAC : Yes<br>
Format settings, Reference frames : 4 frames<br>
Codec ID : V_MPEG4/ISO/AVC<br>
Duration : 24 min 5 s<br>
Bit rate mode : Variable<br>
Bit rate : 7 364 kb/s<br>
Maximum bit rate : 12.7 Mb/s<br>
Width : 1 920 pixels<br>
Height : 1 080 pixels<br>
Display aspect ratio : 16:9<br>
Frame rate mode : Constant<br>
Frame rate : 23.976 (24000/1001) FPS<br>
Color space : YUV<br>
Chroma subsampling : 4:2:0<br>
Bit depth : 8 bits<br>
Scan type : Progressive<br>
Bits/(Pixel*Frame) : 0.148<br>
Stream size : 1.24 GiB (97%)<br>
Default : Yes<br>
Forced : No<br>
Color range : Limited<br>
Color primaries : BT.709<br>
Transfer characteristics : BT.709<br>
Matrix coefficients : BT.709<br>
<br>
Audio<br>
ID : 2<br>
Format : E-AC-3<br>
Format/Info : Enhanced AC-3<br>
Commercial name : Dolby Digital Plus<br>
Codec ID : A_EAC3<br>
Duration : 24 min 5 s<br>
Bit rate mode : Constant<br>
Bit rate : 256 kb/s<br>
Channel(s) : 6 channels<br>
Channel layout : L R C LFE Ls Rs<br>
Sampling rate : 48.0 kHz<br>
Frame rate : 31.250 FPS (1536 SPF)<br>
Compression mode : Lossy<br>
Stream size : 44.1 MiB (3%)<br>
Language : English<br>
Service kind : Complete Main<br>
Default : Yes<br>
Forced : No<br>
<br>
Text #1<br>
ID : 3<br>
Format : UTF-8<br>
Codec ID : S_TEXT/UTF8<br>
Codec ID/Info : UTF-8 Plain Text<br>
Duration : 23 min 57 s<br>
Bit rate : 95 b/s<br>
Frame rate : 0.360 FPS<br>
Count of elements : 517<br>
Stream size : 16.8 KiB (0%)<br>
Title : SDH<br>
Language : English<br>
Default : No<br>
Forced : No<br>
<br>
Text #2<br>
ID : 4<br>
Format : UTF-8<br>
Codec ID : S_TEXT/UTF8<br>
Codec ID/Info : UTF-8 Plain Text<br>
Duration : 23 min 53 s<br>
Bit rate : 87 b/s<br>
Frame rate : 0.300 FPS<br>
Count of elements : 430<br>
Stream size : 15.4 KiB (0%)<br>
Language : Danish<br>
Default : No<br>
Forced : No<br>
<br>
Text #3<br>
ID : 5<br>
Format : UTF-8<br>
Codec ID : S_TEXT/UTF8<br>
Codec ID/Info : UTF-8 Plain Text<br>
Duration : 23 min 53 s<br>
Bit rate : 97 b/s<br>
Frame rate : 0.299 FPS<br>
Count of elements : 429<br>
Stream size : 17.1 KiB (0%)<br>
Language : German<br>
Default : No<br>
Forced : No<br>
<br>
Text #4<br>
ID : 6<br>
Format : UTF-8<br>
Codec ID : S_TEXT/UTF8<br>
Codec ID/Info : UTF-8 Plain Text<br>
Duration : 23 min 53 s<br>
Bit rate : 95 b/s<br>
Frame rate : 0.300 FPS<br>
Count of elements : 430<br>
Stream size : 16.7 KiB (0%)<br>
Title : Latin American<br>
Language : Spanish<br>
Default : No<br>
Forced : No<br>
<br>
Text #5<br>
ID : 7<br>
Format : UTF-8<br>
Codec ID : S_TEXT/UTF8<br>
Codec ID/Info : UTF-8 Plain Text<br>
Duration : 23 min 53 s<br>
Bit rate : 86 b/s<br>
Frame rate : 0.300 FPS<br>
Count of elements : 430<br>
Stream size : 15.1 KiB (0%)<br>
Title : European<br>
Language : Spanish<br>
Default : No<br>
Forced : No<br>
<br>
Text #6<br>
ID : 8<br>
Format : UTF-8<br>
Codec ID : S_TEXT/UTF8<br>
Codec ID/Info : UTF-8 Plain Text<br>
Duration : 23 min 59 s<br>
Bit rate : 94 b/s<br>
Frame rate : 0.352 FPS<br>
Count of elements : 506<br>
Stream size : 16.6 KiB (0%)<br>
Title : European (SDH)<br>
Language : Spanish<br>
Default : No<br>
Forced : No<br>
<br>
Text #7<br>
ID : 9<br>
Format : UTF-8<br>
Codec ID : S_TEXT/UTF8<br>
Codec ID/Info : UTF-8 Plain Text<br>
Duration : 23 min 53 s<br>
Bit rate : 81 b/s<br>
Frame rate : 0.296 FPS<br>
Count of elements : 424<br>
Stream size : 14.3 KiB (0%)<br>
Language : Finnish<br>
Default : No<br>
Forced : No<br>
<br>
Text #8<br>
ID : 10<br>
Format : UTF-8<br>
Codec ID : S_TEXT/UTF8<br>
Codec ID/Info : UTF-8 Plain Text<br>
Duration : 23 min 41 s<br>
Bit rate : 98 b/s<br>
Frame rate : 0.294 FPS<br>
Count of elements : 418<br>
Stream size : 17.0 KiB (0%)<br>
Language : French<br>
Default : No<br>
Forced : No<br>
<br>
Text #9<br>
ID : 11<br>
Format : UTF-8<br>
Codec ID : S_TEXT/UTF8<br>
Codec ID/Info : UTF-8 Plain Text<br>
Duration : 24 min 0 s<br>
Bit rate : 94 b/s<br>
Frame rate : 0.340 FPS<br>
Count of elements : 490<br>
Stream size : 16.7 KiB (0%)<br>
Title : SDH<br>
Language : French<br>
Default : No<br>
Forced : No<br>
<br>
Text #10<br>
ID : 12<br>
Format : UTF-8<br>
Codec ID : S_TEXT/UTF8<br>
Codec ID/Info : UTF-8 Plain Text<br>
Duration : 23 min 53 s<br>
Bit rate : 92 b/s<br>
Frame rate : 0.297 FPS<br>
Count of elements : 426<br>
Stream size : 16.2 KiB (0%)<br>
Language : Italian<br>
Default : No<br>
Forced : No<br>
<br>
Text #11<br>
ID : 13<br>
Format : UTF-8<br>
Codec ID : S_TEXT/UTF8<br>
Codec ID/Info : UTF-8 Plain Text<br>
Duration : 23 min 53 s<br>
Bit rate : 72 b/s<br>
Frame rate : 0.268 FPS<br>
Count of elements : 384<br>
Stream size : 12.7 KiB (0%)<br>
Language : Dutch<br>
Default : No<br>
Forced : No<br>
<br>
Text #12<br>
ID : 14<br>
Format : UTF-8<br>
Codec ID : S_TEXT/UTF8<br>
Codec ID/Info : UTF-8 Plain Text<br>
Duration : 23 min 53 s<br>
Bit rate : 89 b/s<br>
Frame rate : 0.300 FPS<br>
Count of elements : 430<br>
Stream size : 15.6 KiB (0%)<br>
Language : Norwegian<br>
Default : No<br>
Forced : No<br>
<br>
Text #13<br>
ID : 15<br>
Format : UTF-8<br>
Codec ID : S_TEXT/UTF8<br>
Codec ID/Info : UTF-8 Plain Text<br>
Duration : 23 min 53 s<br>
Bit rate : 79 b/s<br>
Frame rate : 0.296 FPS<br>
Count of elements : 424<br>
Stream size : 13.9 KiB (0%)<br>
Language : Polish<br>
Default : No<br>
Forced : No<br>
<br>
Text #14<br>
ID : 16<br>
Format : UTF-8<br>
Codec ID : S_TEXT/UTF8<br>
Codec ID/Info : UTF-8 Plain Text<br>
Duration : 23 min 53 s<br>
Bit rate : 85 b/s<br>
Frame rate : 0.300 FPS<br>
Count of elements : 430<br>
Stream size : 14.9 KiB (0%)<br>
Title : Brazilian<br>
Language : Portuguese<br>
Default : No<br>
Forced : No<br>
<br>
Text #15<br>
ID : 17<br>
Format : UTF-8<br>
Codec ID : S_TEXT/UTF8<br>
Codec ID/Info : UTF-8 Plain Text<br>
Duration : 23 min 53 s<br>
Bit rate : 87 b/s<br>
Frame rate : 0.299 FPS<br>
Count of elements : 429<br>
Stream size : 15.4 KiB (0%)<br>
Title : European<br>
Language : Portuguese<br>
Default : No<br>
Forced : No<br>
<br>
Text #16<br>
ID : 18<br>
Format : UTF-8<br>
Codec ID : S_TEXT/UTF8<br>
Codec ID/Info : UTF-8 Plain Text<br>
Duration : 23 min 53 s<br>
Bit rate : 87 b/s<br>
Frame rate : 0.299 FPS<br>
Count of elements : 429<br>
Stream size : 15.4 KiB (0%)<br>
Language : Romanian<br>
Default : No<br>
Forced : No<br>
<br>
Text #17<br>
ID : 19<br>
Format : UTF-8<br>
Codec ID : S_TEXT/UTF8<br>
Codec ID/Info : UTF-8 Plain Text<br>
Duration : 23 min 53 s<br>
Bit rate : 93 b/s<br>
Frame rate : 0.299 FPS<br>
Count of elements : 429<br>
Stream size : 16.4 KiB (0%)<br>
Language : Swedish<br>
Default : No<br>
Forced : No<br>
<br>
Text #18<br>
ID : 20<br>
Format : UTF-8<br>
Codec ID : S_TEXT/UTF8<br>
Codec ID/Info : UTF-8 Plain Text<br>
Duration : 23 min 53 s<br>
Bit rate : 82 b/s<br>
Frame rate : 0.295 FPS<br>
Count of elements : 423<br>
Stream size : 14.5 KiB (0%)<br>
Language : Turkish<br>
Default : No<br>
Forced : No<br>
<br>
Text #19<br>
ID : 21<br>
Format : UTF-8<br>
Codec ID : S_TEXT/UTF8<br>
Codec ID/Info : UTF-8 Plain Text<br>
Duration : 23 min 53 s<br>
Bit rate : 79 b/s<br>
Frame rate : 0.300 FPS<br>
Count of elements : 430<br>
Stream size : 13.9 KiB (0%)<br>
Title : Traditional, Hong Kong<br>
Language : Chinese<br>
Default : No<br>
Forced : No<br>
<br>
Text #20<br>
ID : 22<br>
Format : UTF-8<br>
Codec ID : S_TEXT/UTF8<br>
Codec ID/Info : UTF-8 Plain Text<br>
Duration : 23 min 53 s<br>
Bit rate : 74 b/s<br>
Frame rate : 0.300 FPS<br>
Count of elements : 430<br>
Stream size : 13.0 KiB (0%)<br>
Title : Simplified<br>
Language : Chinese<br>
Default : No<br>
Forced : No<br>
<br>
Text #21<br>
ID : 23<br>
Format : UTF-8<br>
Codec ID : S_TEXT/UTF8<br>
Codec ID/Info : UTF-8 Plain Text<br>
Duration : 23 min 53 s<br>
Bit rate : 71 b/s<br>
Frame rate : 0.300 FPS<br>
Count of elements : 430<br>
Stream size : 12.4 KiB (0%)<br>
Title : Traditional<br>
Language : Chinese<br>
Default : No<br>
Forced : No<br>
<br>
Menu<br>
00:00:05.005 : en:Intro<br>
00:01:05.023 : en:Scene 1<br>
00:12:20.991 : en:Scene 2<br>
00:23:36.416 : en:Credits</div>
</div><br>
Screenshots:<br>
<img src="https://i.imgur.com/Tuk1H5u.jpeg" class="bbCodeImage LbImage" alt="[​IMG]" data-url="https://i.imgur.com/Tuk1H5u.jpeg" style=""> <br>
<div class="bbCodeBlock bbCodeVfcHH HiddenContent">
<div class="attribution type">Hidden Content:</div>
<blockquote>You must either reply or click 'Like' to see the hidden information contained here.</blockquote>
</div>
<div class="messageTextEndMarker">&nbsp;</div>
</blockquote>
</article>]]></description>
                <author><![CDATA[LazyRips]]></author>
                </item>

                </channel></rss>